<svg width="71" height="110" viewBox="0 0 71 110" fill="none" xmlns="http://www.w3.org/2000/svg">
<path fill-rule="evenodd" clip-rule="evenodd" d="M4 56.5C4 55.5343 4.00282 54.5322 4.01206 53.5H35.5H66.9879C66.9972 54.5322 67 55.5343 67 56.5C67 66.0515 66.1127 78.7181 61.5953 88.8729C59.362 93.8932 56.3132 98.1334 52.1968 101.122C48.1201 104.082 42.7441 106 35.5 106C28.2559 106 22.8799 104.082 18.8032 101.122C14.6868 98.1334 11.638 93.8932 9.4047 88.8729C4.8873 78.7181 4 66.0515 4 56.5ZM62.4605 22.4536C65.7639 30.9311 66.6743 40.9093 66.9162 49.5H37.5V42.7396C40.6712 41.8942 43 39.0878 43 35.7561V23.2439C43 19.9122 40.6712 17.1058 37.5 16.2604V4.04691C44.3326 4.37321 49.3711 6.37705 53.1697 9.28573C57.3747 12.5056 60.3615 17.067 62.4605 22.4536ZM33.5 16.2604C30.3288 17.1058 28 19.9122 28 23.2439V35.7561C28 39.0878 30.3288 41.8942 33.5 42.7396V49.5H4.08385C4.32574 40.9093 5.23612 30.9311 8.53954 22.4536C10.6385 17.067 13.6253 12.5056 17.8303 9.28573C21.6289 6.37705 26.6674 4.37321 33.5 4.04691V16.2604ZM0 56.5C0 37.5508 0.960992 1.45743 33.5 0.0428469C34.1538 0.0144224 34.8204 0 35.5 0C36.1796 0 36.8462 0.0144224 37.5 0.0428469C70.039 1.45743 71 37.5508 71 56.5C71 75.83 67.5 110 35.5 110C3.5 110 0 75.83 0 56.5ZM32 23.2439C32 21.5822 33.4349 20 35.5 20C37.5651 20 39 21.5822 39 23.2439V35.7561C39 37.4178 37.5651 39 35.5 39C33.4349 39 32 37.4178 32 35.7561V23.2439Z" fill="#424242"/>
<path d="M36 2V17.5L30.5 21L29.5 27.5C29.6667 30.8333 30.1 37.6 30.5 38C30.9 38.4 34 40.1667 35.5 41C35.3333 44.3333 35.1 51 35.5 51C35.9 51 13.3333 51.3333 2 51.5V49.5L4.5 27.5L12 12.5L22 4L36 2Z" fill="#424242"/>
</svg>
