<?xml version="1.0" encoding="UTF-8" standalone="no"?>
<!DOCTYPE svg PUBLIC "-//W3C//DTD SVG 1.1//EN" "http://www.w3.org/Graphics/SVG/1.1/DTD/svg11.dtd">
<svg width="100%" height="100%" viewBox="0 0 1024 1024" version="1.1" xmlns="http://www.w3.org/2000/svg" xmlns:xlink="http://www.w3.org/1999/xlink" xml:space="preserve" xmlns:serif="http://www.serif.com/" style="fill-rule:evenodd;clip-rule:evenodd;stroke-linecap:round;stroke-linejoin:round;stroke-miterlimit:1.5;">
    <g transform="matrix(5.14969,0,0,5.14969,-6129.63,-2085.5)">
        <g transform="matrix(1.09182,0,0,1.09182,344.395,21.5906)">
            <circle cx="865.822" cy="442.207" r="86.455" style="fill:none;stroke:black;stroke-width:3.71px;"/>
        </g>
        <path d="M1306.7,444.965C1306.47,439.341 1310.05,435.658 1313.24,437.014C1317.74,438.923 1315.79,447.839 1315.58,448.777C1325.82,438.631 1324.96,449.368 1324.67,450.04C1323.3,453.152 1318.65,453.629 1318.93,456.816C1320.78,477.939 1322.08,479.054 1319.72,479.556C1315.01,480.56 1313.51,479.723 1306.98,492.876C1295.59,492.088 1305.37,461.07 1298.02,460.73C1294.13,460.55 1272.98,475.754 1272.19,467.796C1272.16,467.519 1273.46,463.924 1268.95,464.467C1268.28,464.548 1260.62,469.364 1257.65,464.756C1248.26,450.132 1292.01,422.189 1306.7,444.965Z" style="fill:none;stroke:black;stroke-width:4.05px;"/>
        <path d="M1265.03,466.18C1255.11,480.344 1256.7,506.9 1280.83,508.774C1297,510.029 1299.55,505.436 1307.89,498.667C1313.92,499.641 1317.48,500.228 1320.26,494.346C1322.71,489.178 1322.99,480.296 1318.18,480.058" style="fill:none;stroke:black;stroke-width:4.05px;"/>
        <path d="M1267.83,476.766C1267.18,479.485 1266.79,479.43 1267.41,483.119C1269.35,481.041 1269.3,480.612 1268.47,476.883C1267.66,479.816 1267.9,479.777 1267.84,482.812C1268.58,480.8 1268.6,480.862 1268.75,478.712" style="fill:none;stroke:black;stroke-width:4.05px;"/>
        <path d="M1286.67,476.143C1284.02,478.801 1285.96,482.862 1286.31,482.927C1288.76,483.38 1287.36,477.122 1287.24,476.625C1286.36,479.076 1286.62,479.074 1286.71,481.665C1287.42,479.179 1287.09,479.189 1286.78,476.84C1285.91,479.575 1286.15,479.547 1286.49,482.417C1287.53,480.133 1287.65,480.1 1287.09,476.669C1286.39,479.371 1286.59,479.349 1286.73,482.135C1287.87,480.387 1288.69,480.344 1287.38,476.497C1283.67,479.961 1286.59,483.266 1287.3,482.432C1288.75,480.728 1288.17,475.467 1287.21,475.587C1286.29,475.701 1283.89,481.192 1286.5,483.324" style="fill:none;stroke:black;stroke-width:4.05px;"/>
        <path d="M1277.79,480.502C1277.32,481.636 1272.42,493.271 1276.15,495.791C1280.27,498.563 1283.74,493.792 1284.13,493.25" style="fill:none;stroke:black;stroke-width:4.05px;"/>
        <path d="M1284.17,493.202C1287.75,492.717 1294.49,491.18 1294.69,494.906C1294.89,498.761 1288.58,498.704 1287.96,498.699C1287.84,499.233 1286.64,504.197 1281.33,500.491C1280.87,501.039 1276.2,506.592 1272.39,499.924C1271.95,499.924 1267.26,499.914 1267.38,497.704C1267.55,494.503 1274.32,493.455 1274.32,493.455" style="fill:none;stroke:black;stroke-width:4.05px;"/>
        <path d="M1271.41,507.123C1265.32,517.031 1273.44,521.412 1277.26,522.081C1289.68,524.253 1299.99,506.466 1301.18,504.407" style="fill:none;stroke:black;stroke-width:4.05px;"/>
        <path d="M1303.35,502.7C1331.34,502.434 1336.89,523.04 1337.71,550.011C1337.92,556.799 1334.88,555.054 1328.14,555.728C1317.59,556.783 1308.28,555.456 1306.42,555.224" style="fill:none;stroke:black;stroke-width:4.05px;"/>
        <path d="M1306.75,527.205C1305.77,532.668 1304.79,538.112 1308.92,596.558" style="fill:none;stroke:black;stroke-width:4.05px;"/>
        <path d="M1261.76,523.313C1256.93,551.131 1252.85,557.828 1254.83,582.878" style="fill:none;stroke:black;stroke-width:4.05px;"/>
        <path d="M1254.91,582.937C1281.21,592.041 1303.42,585.615 1307.46,584.446" style="fill:none;stroke:black;stroke-width:4.05px;"/>
        <path d="M1257.56,584.493C1257.56,589.423 1257.5,587.867 1257.79,592.745" style="fill:none;stroke:black;stroke-width:4.05px;"/>
        <path d="M1313.91,556.202C1314.1,559.217 1314.6,568.033 1314.69,594.846" style="fill:none;stroke:black;stroke-width:4.05px;"/>
        <path d="M1329.32,556.16C1329.32,569.479 1329.25,569.411 1329.17,582.703C1329.16,583.776 1328.84,585.042 1329.19,590.188" style="fill:none;stroke:black;stroke-width:4.05px;"/>
        <path d="M1267.99,504.476C1263.9,505.888 1248.56,508.327 1246.66,552.813C1246.26,562.224 1246.29,566.95 1247.25,567.285C1248.28,567.649 1253.86,567.146 1254.47,567.094" style="fill:none;stroke:black;stroke-width:4.05px;"/>
        <path d="M1249.3,567.525C1249.08,579.496 1248.96,576.569 1249.42,588.563" style="fill:none;stroke:black;stroke-width:4.05px;"/>
    </g>
</svg>
