<?xml version="1.0" encoding="UTF-8" standalone="no"?>
<!DOCTYPE svg PUBLIC "-//W3C//DTD SVG 1.1//EN" "http://www.w3.org/Graphics/SVG/1.1/DTD/svg11.dtd">
<svg width="100%" height="100%" viewBox="0 0 1024 1024" version="1.1" xmlns="http://www.w3.org/2000/svg" xmlns:xlink="http://www.w3.org/1999/xlink" xml:space="preserve" xmlns:serif="http://www.serif.com/" style="fill-rule:evenodd;clip-rule:evenodd;stroke-linecap:round;stroke-linejoin:round;stroke-miterlimit:1.5;">
    <g transform="matrix(5.22992,0,0,5.22992,-1170.36,-1181.9)">
        <g transform="matrix(1,0,0,1,-162.323,-823.105)">
            <path d="M519.223,1095.43C520.398,1112.57 520.385,1138.72 485.007,1134.24C484.253,1134.14 478.735,1133.44 476.43,1130.15C474.564,1127.48 474.32,1122.25 473.993,1119.21C471.393,1118.18 460.959,1115.98 466.536,1105.65C470.889,1097.6 475.198,1105 475.561,1105.62C478.827,1102.41 478.713,1100.66 478.911,1096.24C479.344,1098.06 478.937,1102.79 486.99,1101.35C491.677,1100.51 493.169,1095.99 494.352,1093.6C494.705,1099.73 494.435,1101.05 500.462,1102.25C509.999,1104.15 510.572,1095.92 511.075,1094.15C511.213,1094.73 512.714,1101.04 514.352,1100.83C515.688,1100.66 518.931,1095.86 519.223,1095.43Z" style="fill:none;stroke:black;stroke-width:3.98px;"/>
        </g>
        <g transform="matrix(1,0,0,1,-162.323,-823.105)">
            <path d="M506.147,1132.66C524.866,1135.59 526.975,1128.15 527.58,1120.34C531.96,1063.75 478.434,1071.82 468.029,1084.28C465.449,1087.37 451.34,1117.57 451.58,1121.57C452.029,1129.06 474.984,1132.2 479.31,1133" style="fill:none;stroke:black;stroke-width:3.98px;"/>
        </g>
        <g transform="matrix(1,0,0,1,-162.323,-823.105)">
            <path d="M479.396,1133.3C480.386,1134.7 489.168,1147.11 497.815,1144.23C504.996,1141.84 503.512,1140.04 505.845,1132.88" style="fill:none;stroke:black;stroke-width:3.98px;"/>
        </g>
        <g transform="matrix(1,0,0,1,-162.323,-823.105)">
            <path d="M456.176,1127.1C441.716,1128.48 436.993,1128.33 440.73,1142.4C444.604,1157 447.169,1157.9 448.51,1158.37C452.013,1159.6 454.491,1158.97 468.007,1154.74" style="fill:none;stroke:black;stroke-width:3.98px;"/>
        </g>
        <g transform="matrix(1,0,0,1,-162.323,-823.105)">
            <path d="M461.071,1157.73C461.901,1173.34 454.042,1176.43 464.729,1184.13C467.665,1186.24 489.252,1201.79 509.936,1185.34C512.906,1182.98 512.323,1159.06 510.422,1141.07" style="fill:none;stroke:black;stroke-width:3.98px;"/>
        </g>
        <g transform="matrix(1,0,0,1,-162.323,-823.105)">
            <path d="M527.613,1120.81C529.833,1120.33 535.882,1116.68 537.517,1124.31C538.281,1127.88 539.09,1143.1 535.376,1145.55C530.663,1148.67 512.723,1146.94 510.949,1146.75" style="fill:none;stroke:black;stroke-width:3.98px;"/>
        </g>
        <g transform="matrix(1,0,0,1,-162.323,-823.105)">
            <path d="M537.982,1124.94C561.591,1121.94 565.064,1119.91 571.137,1117.23" style="fill:none;stroke:black;stroke-width:3.98px;"/>
        </g>
        <g transform="matrix(1,0,0,1,-162.323,-823.105)">
            <path d="M538.281,1138.67C544.411,1138.3 560.9,1136.29 575.422,1131.92" style="fill:none;stroke:black;stroke-width:3.98px;"/>
        </g>
        <g transform="matrix(1,0,0,1,-162.323,-823.105)">
            <path d="M460.094,1179.97C457.556,1195.82 459.237,1195.8 460.565,1211.74C460.944,1216.29 461.755,1217.08 458.851,1235.2" style="fill:none;stroke:black;stroke-width:3.98px;"/>
        </g>
        <g transform="matrix(1,0,0,1,-162.323,-823.105)">
            <path d="M471.578,1206.6C481.197,1207.27 487.054,1207.3 502.541,1202.87" style="fill:none;stroke:black;stroke-width:3.98px;"/>
        </g>
        <g transform="matrix(1,0,0,1,-162.323,-823.105)">
            <path d="M485.749,1207.58C489.172,1225.1 486.94,1227.64 483.363,1239.23" style="fill:none;stroke:black;stroke-width:3.98px;"/>
        </g>
        <g transform="matrix(1,0,0,1,-162.323,-823.105)">
            <path d="M509.693,1185.52C509.693,1218.91 513.611,1234.14 486.682,1229.09" style="fill:none;stroke:black;stroke-width:3.98px;"/>
        </g>
        <g transform="matrix(1,0,0,1,-162.323,-823.105)">
            <path d="M458.872,1192.43C458.628,1192.71 451.288,1199.22 451.146,1210.51C451.072,1216.43 460.074,1219.35 460.134,1219.38" style="fill:none;stroke:black;stroke-width:3.98px;"/>
        </g>
        <g transform="matrix(1.09182,0,0,1.09182,-623.638,-158.922)">
            <circle cx="865.822" cy="442.207" r="86.455" style="fill:none;stroke:black;stroke-width:3.65px;"/>
        </g>
        <g transform="matrix(1,0,0,1,-162.323,-823.105)">
            <path d="M456.673,1194.87C450.018,1187.4 444.21,1190.04 442.058,1192.71C440.279,1194.91 429.987,1219.27 434.033,1225.06" style="fill:none;stroke:black;stroke-width:3.98px;"/>
        </g>
        <g transform="matrix(1,0,0,1,-162.323,-823.105)">
            <path d="M451.542,1212.71C450.957,1214.16 444.905,1229.2 439.118,1227.86" style="fill:none;stroke:black;stroke-width:3.98px;"/>
        </g>
        <g transform="matrix(1,0,0,1,-162.323,-823.105)">
            <path d="M440.88,1143.07C418.811,1148.23 418.928,1148.08 407.496,1144.85C397.344,1141.99 398.783,1154.9 398.778,1158.95C398.768,1166.05 409.799,1163.93 410.712,1163.73" style="fill:none;stroke:black;stroke-width:3.98px;"/>
        </g>
        <g transform="matrix(1,0,0,1,-162.323,-823.105)">
            <path d="M417.824,1153.33C417.116,1154.03 404.261,1166.68 415.388,1165.5C418.697,1165.15 424.435,1159.79 426.494,1159.22C427.65,1158.9 437.219,1157.2 445.515,1155.47" style="fill:none;stroke:black;stroke-width:3.98px;"/>
        </g>
        <g transform="matrix(1,0,0,1,-162.323,-823.105)">
            <path d="M471.421,1105.52C472.663,1107.07 472.51,1107.15 472.87,1108.8C467.057,1108.82 468.147,1112.93 468.206,1113.12C469.194,1116.22 471.973,1114.46 472.649,1113.36" style="fill:none;stroke:black;stroke-width:3.98px;"/>
        </g>
        <g transform="matrix(1,0,0,1,-162.323,-823.105)">
            <path d="M495.351,1127.75C489.021,1126.09 488.106,1121.27 485.538,1114.5" style="fill:none;stroke:black;stroke-width:3.98px;"/>
        </g>
        <g transform="matrix(1,0,0,1,-162.323,-823.105)">
            <path d="M485.513,1114.38C484.189,1115.15 478.737,1118.06 479.36,1122.17C479.61,1123.83 481.161,1124.37 481.779,1124.44C484.69,1124.78 486.726,1123.13 488.103,1122.25" style="fill:none;stroke:black;stroke-width:3.98px;"/>
        </g>
        <g transform="matrix(1,0,0,1,-162.323,-823.105)">
            <path d="M486.845,1118.43C486.228,1118.91 486.214,1118.88 482.554,1121.27" style="fill:none;stroke:black;stroke-width:3.98px;"/>
        </g>
        <g transform="matrix(1,0,0,1,-162.323,-823.105)">
            <path d="M496.222,1106.49C495.429,1107.18 492.749,1108.91 492.659,1112.13C492.525,1116.89 498.942,1110.54 497.388,1107.07C496.228,1104.47 490.117,1113.51 493.973,1112.91C497.453,1112.38 498.807,1104 494.722,1108.67C493.32,1110.28 492.468,1114.14 494.706,1112C496.914,1109.88 497.284,1107.46 495.804,1108.63C494.361,1109.77 493.856,1112.16 493.784,1112.51C494.528,1112.09 495.387,1111.74 495.94,1109.4C495.576,1109.85 495.273,1109.85 494.737,1111.77" style="fill:none;stroke:black;stroke-width:3.98px;"/>
        </g>
        <g transform="matrix(1,0,0,1,-162.323,-823.105)">
            <path d="M511.953,1109.31C511.371,1109.81 509.084,1111.12 509.191,1114.59C509.265,1116.96 512.441,1114.35 512.493,1110.64C512.532,1107.82 509.867,1111.7 509.605,1114.18C509.531,1114.88 511.717,1114.03 511.914,1110.81C510.877,1111.56 511.032,1111.69 510.435,1113.38C510.817,1113.02 511.272,1113.1 511.811,1111.3" style="fill:none;stroke:black;stroke-width:3.98px;"/>
        </g>
        <g transform="matrix(1,0,0,1,-162.323,-823.105)">
            <path d="M501.858,1109.77C506.231,1115.98 503.575,1119.87 503.304,1120.18C500.981,1122.86 498.255,1120.01 497.839,1119.68" style="fill:none;stroke:black;stroke-width:3.98px;"/>
        </g>
    </g>
</svg>
