<?xml version="1.0" encoding="UTF-8" standalone="no"?>
<!DOCTYPE svg PUBLIC "-//W3C//DTD SVG 1.1//EN" "http://www.w3.org/Graphics/SVG/1.1/DTD/svg11.dtd">
<svg width="100%" height="100%" viewBox="0 0 1024 1024" version="1.1" xmlns="http://www.w3.org/2000/svg" xmlns:xlink="http://www.w3.org/1999/xlink" xml:space="preserve" xmlns:serif="http://www.serif.com/" style="fill-rule:evenodd;clip-rule:evenodd;stroke-linecap:round;stroke-linejoin:round;stroke-miterlimit:1.5;">
    <g transform="matrix(5.23274,0,0,5.23274,-3984.31,-1937.15)">
        <path d="M858.495,409.257C859.556,407.431 859.658,405.854 865.842,401.788" style="fill:none;stroke:black;stroke-width:3.98px;"/>
        <path d="M846.464,417.362C844.702,416.32 841.55,413.979 836.226,416.249" style="fill:none;stroke:black;stroke-width:3.98px;"/>
        <g transform="matrix(1.09182,0,0,1.09182,-86.054,-14.7667)">
            <circle cx="865.822" cy="442.207" r="86.455" style="fill:none;stroke:black;stroke-width:3.65px;"/>
        </g>
        <path d="M807.192,416.369C801.282,403.879 809.567,397.131 812.282,399.234C815.105,401.42 817.11,410.204 817.341,411.219C826.171,392.155 835.241,395.528 842.379,396.443C863.363,386.139 873.304,402.474 875.049,403.008C876.144,403.343 887.199,407.611 882.581,414.756C882.269,415.239 868.999,423.476 851.645,414.193C854.202,416.612 858.362,419.773 853.915,423.263C846.151,429.356 828.947,422.508 826.938,421.708C827.621,422.623 834.783,428.585 830.46,439.039C829.472,441.428 825.059,437.384 824.063,437.064C816.958,434.778 816.637,441.97 816.332,443.619C806.572,437.259 804.394,433.281 804.881,427.586C801.26,424.994 796.982,421.742 798.349,419.266C799.634,416.939 805.369,418.765 805.948,418.95" style="fill:none;stroke:black;stroke-width:3.98px;"/>
        <path d="M874.449,418.716C876.615,424.021 876.469,424.014 877.403,429.599C877.493,430.142 889.711,441.012 873.775,455.623C866.992,461.842 856.135,461.428 855.651,461.437C841.038,461.707 837.018,456.271 832.771,451.302C832.063,451.822 826.663,455.789 821.858,452.491C816.334,448.7 816.015,444.109 815.789,443.247" style="fill:none;stroke:black;stroke-width:3.98px;"/>
        <path d="M881.77,442.263C882.754,441.342 893.574,431.211 895.064,431.908C901.793,435.057 905.164,451.853 905.546,453.754C906.229,457.159 892.56,460.633 891.325,460.947" style="fill:none;stroke:black;stroke-width:3.98px;"/>
        <path d="M881.177,444.637C882.335,447.192 885.822,456.134 890.973,464.358" style="fill:none;stroke:black;stroke-width:3.98px;"/>
        <path d="M874.449,456.312C875.302,457.658 881.121,466.852 884.258,473.651" style="fill:none;stroke:black;stroke-width:3.98px;"/>
        <path d="M891.466,465.414C890.829,467.98 887.821,479.076 851.733,495.149" style="fill:none;stroke:black;stroke-width:3.98px;"/>
        <path d="M839.426,460.071C834.298,463.698 833.876,464.357 834.817,467.03C838.616,477.817 848.867,496.617 858.15,504.112" style="fill:none;stroke:black;stroke-width:3.98px;"/>
        <path d="M841.405,460.269C853.879,479.186 852.808,479.853 860.159,488.797" style="fill:none;stroke:black;stroke-width:3.98px;"/>
        <path d="M892.851,464.82C893.629,466.093 898.809,474.872 899.326,475.748" style="fill:none;stroke:black;stroke-width:3.98px;"/>
        <path d="M899.777,476.099C896.19,481.481 882.468,490.53 880.833,491.608C870.039,498.727 869.727,498.051 858.568,504.726" style="fill:none;stroke:black;stroke-width:3.98px;"/>
        <path d="M900.568,434.744C913.637,426.876 918.398,444.024 921.992,449.546C927.45,457.935 935.767,461.347 937.32,468.018C938.031,471.069 929.553,477.671 928.705,478.332" style="fill:none;stroke:black;stroke-width:3.98px;"/>
        <path d="M906.504,450.376C914.278,460.875 914.303,461.123 914.615,469.569C914.813,474.926 916.535,474.841 916.996,474.819C918.591,474.741 919.121,470.737 919.173,470.342C919.883,471.775 923.634,482.666 928.973,478.596" style="fill:none;stroke:black;stroke-width:3.98px;"/>
        <path d="M833.688,468.975C823.166,480.567 817.658,481.662 821.445,486.567C824.337,490.314 828.657,498.235 831.952,501.79C833.583,503.55 840.019,495.259 845.123,489.917" style="fill:none;stroke:black;stroke-width:3.98px;"/>
        <path d="M822.014,488.96C816.975,494.708 816.712,494.279 807.364,501.219C805.519,502.589 797.926,497.995 795.185,500.169C793.442,501.553 799.676,505.29 800.182,505.593C779.026,506.085 797.322,521.393 801.64,521.692C804.396,521.883 804.1,520.772 827.515,498.823" style="fill:none;stroke:black;stroke-width:3.98px;"/>
        <path d="M861.786,503.8C867.542,517.783 871.807,516.785 885.063,509.628C894.268,504.658 902.101,499.965 909.2,491.669C912.703,487.575 906.033,485.084 900.448,476.769" style="fill:none;stroke:black;stroke-width:3.98px;"/>
        <path d="M869.107,515.079C863.289,529.794 851.54,545.352 863.369,545.707C886.295,546.395 887.229,537.724 890.159,532.94C897.15,521.525 898.862,520.15 919.278,511.179" style="fill:none;stroke:black;stroke-width:3.98px;"/>
        <path d="M911.451,489.554C920.25,495.473 925.293,497.598 944.929,501.748" style="fill:none;stroke:black;stroke-width:3.98px;"/>
        <path d="M902.547,519.63C915.428,523.238 918.15,521.192 930.092,527.889" style="fill:none;stroke:black;stroke-width:3.98px;"/>
        <path d="M866.534,546.936C868.566,555.68 868.301,555.704 869.919,560.069" style="fill:none;stroke:black;stroke-width:3.98px;"/>
        <path d="M883.551,543.572C884.995,548.182 887.034,556.509 887.311,557.641" style="fill:none;stroke:black;stroke-width:3.98px;"/>
        <path d="M909.67,458.488C902.967,465.02 901.202,464.844 894.619,465.649" style="fill:none;stroke:black;stroke-width:3.98px;"/>
        <path d="M913.627,467.59C906.784,473.186 904.726,472.47 899.971,473.014" style="fill:none;stroke:black;stroke-width:3.98px;"/>
        <path d="M923.521,447.21C933.393,438.626 946.894,455.703 951.842,457.668" style="fill:none;stroke:black;stroke-width:3.98px;"/>
        <path d="M927.478,454.729C939.143,451.951 941.985,463.957 952.811,468.274" style="fill:none;stroke:black;stroke-width:3.98px;"/>
        <path d="M849.122,462.841C856.575,476.857 866.904,464.117 869.766,459.358" style="fill:none;stroke:black;stroke-width:3.98px;"/>
        <path d="M822.014,441.669C825.364,443.047 824.544,443.914 824.049,446.056C823.308,449.257 827.82,448.578 828.202,448.521" style="fill:none;stroke:black;stroke-width:3.98px;"/>
        <path d="M843.779,439.691C831.803,447.71 850.472,459.716 858.722,455.365C866.325,451.355 848.42,434.174 841.209,439.692" style="fill:none;stroke:black;stroke-width:3.98px;"/>
        <path d="M842.394,439.889C845.586,446.894 848.886,447.647 854.133,450.419" style="fill:none;stroke:black;stroke-width:3.98px;"/>
        <path d="M851.299,430.787C851.938,431.813 852.578,432.839 853.217,433.866" style="fill:none;stroke:black;stroke-width:3.98px;"/>
        <path d="M865.149,424.85L867.281,429.505" style="fill:none;stroke:black;stroke-width:3.98px;"/>
        <path d="M861.588,436.327C862.48,436.192 873.072,434.59 872.614,438.703C872.165,442.736 865.259,442.643 864.541,442.633" style="fill:none;stroke:black;stroke-width:3.98px;"/>
    </g>
</svg>
