<?xml version="1.0" encoding="UTF-8" standalone="no"?>
<!DOCTYPE svg PUBLIC "-//W3C//DTD SVG 1.1//EN" "http://www.w3.org/Graphics/SVG/1.1/DTD/svg11.dtd">
<svg width="100%" height="100%" viewBox="0 0 1024 1024" version="1.1" xmlns="http://www.w3.org/2000/svg" xmlns:xlink="http://www.w3.org/1999/xlink" xml:space="preserve" xmlns:serif="http://www.serif.com/" style="fill-rule:evenodd;clip-rule:evenodd;stroke-linecap:round;stroke-linejoin:round;stroke-miterlimit:1.5;">
    <g transform="matrix(5.18259,0,0,5.18259,-8218.84,-9245.71)">
        <g transform="matrix(1.09182,0,0,1.09182,739.327,1399.98)">
            <circle cx="865.822" cy="442.207" r="86.455" style="fill:none;stroke:rgb(5,0,0);stroke-width:3.68px;"/>
        </g>
        <path d="M1629.25,1873.55C1628.75,1873.27 1619.47,1869.56 1618.14,1861.03C1616.52,1850.69 1622.48,1847.02 1622.76,1846.77C1620.43,1845.93 1612.65,1843.9 1614.02,1840.28C1615.21,1837.15 1620.69,1838.26 1621.28,1838.38C1621.36,1837.9 1622.05,1824.63 1632.1,1824.21C1637.41,1823.99 1633.35,1833.45 1633.03,1834.19" style="fill:none;stroke:rgb(5,0,0);stroke-width:4.02px;"/>
        <path d="M1632.89,1835.4C1643.1,1820.74 1662.8,1815.69 1661.95,1825.92" style="fill:none;stroke:rgb(5,0,0);stroke-width:4.02px;"/>
        <path d="M1662.17,1826.53C1671.5,1822.44 1685.86,1814.88 1694.34,1821.9C1703.76,1829.68 1694.19,1833.88 1693.4,1834.52" style="fill:none;stroke:rgb(5,0,0);stroke-width:4.02px;"/>
        <path d="M1687.82,1845.69C1682.63,1847.14 1682.63,1846.2 1679.37,1845.22C1677.13,1844.54 1675.66,1851.26 1666.59,1853.71" style="fill:none;stroke:rgb(5,0,0);stroke-width:4.02px;"/>
        <path d="M1643.81,1872.12L1641.05,1874.89" style="fill:none;stroke:rgb(5,0,0);stroke-width:4.02px;"/>
        <path d="M1640.96,1875.45C1627.56,1864.77 1617.13,1887.12 1630.23,1893.85C1637.75,1897.72 1643.43,1890.67 1644.07,1890.12" style="fill:none;stroke:rgb(5,0,0);stroke-width:4.02px;"/>
        <path d="M1644.44,1890.17C1645.4,1891.43 1651.53,1897.03 1649.1,1906.05C1647.56,1911.78 1635.27,1917.8 1632.09,1907.56C1631.29,1908.11 1628.66,1911.29 1624.59,1909.94C1621.88,1909.05 1620.61,1905.68 1621.04,1903.76C1622.17,1898.76 1630.01,1895.01 1630.3,1894.83" style="fill:none;stroke:rgb(5,0,0);stroke-width:4.02px;"/>
        <path d="M1630.51,1877.35C1633.26,1877.29 1633.37,1877.04 1635.49,1878.74C1630.65,1881.37 1629.92,1882.27 1630.74,1884.42C1632.07,1887.92 1637.95,1886.55 1638.58,1886.4" style="fill:none;stroke:rgb(5,0,0);stroke-width:4.02px;"/>
        <path d="M1657.58,1895.39C1658.16,1894.76 1665.42,1886.78 1668.22,1894.25C1668.99,1896.31 1667.37,1901.43 1659.74,1897.36" style="fill:none;stroke:rgb(5,0,0);stroke-width:4.02px;"/>
        <path d="M1691.62,1867.37C1689.9,1862.34 1691.23,1862.22 1691.63,1862.29C1693.43,1862.61 1693.11,1866.6 1693.07,1866.99C1692.26,1865.47 1692.29,1865.53 1692,1863.89" style="fill:none;stroke:rgb(5,0,0);stroke-width:4.02px;"/>
        <path d="M1666.13,1872.28C1665.83,1872.02 1662.49,1869.11 1664.51,1867.52C1666.37,1866.05 1667.71,1870.44 1667.82,1870.8C1666.23,1870.37 1666.24,1870.37 1665.19,1869.14C1666.84,1870.69 1666.31,1872.5 1668.2,1871.34" style="fill:none;stroke:rgb(5,0,0);stroke-width:4.02px;"/>
        <path d="M1650.46,1905.05C1660.53,1909.36 1670.6,1905.36 1675.19,1904.07" style="fill:none;stroke:rgb(5,0,0);stroke-width:4.02px;"/>
        <path d="M1678.64,1912.17C1677.25,1903.68 1676.29,1902.7 1680.92,1899.21C1681.98,1898.41 1687.86,1904.44 1690.27,1903.33C1694.65,1901.33 1695.47,1899.57 1698.6,1903.26C1703.62,1909.17 1714.94,1922.7 1690.6,1930.7C1689.38,1931.1 1688.05,1929.69 1685.07,1932.36C1666.29,1949.19 1662.92,1947.22 1652.84,1939.23" style="fill:none;stroke:rgb(5,0,0);stroke-width:4.02px;"/>
        <path d="M1633.68,1912.01C1633,1913.46 1624.86,1923.75 1642.55,1942.69C1647.29,1947.76 1664.78,1923.14 1665.64,1921.61C1668.33,1916.86 1665.13,1916.53 1656.38,1907.21" style="fill:none;stroke:rgb(5,0,0);stroke-width:4.02px;"/>
        <path d="M1660.91,1928.63C1665.69,1923.71 1676.82,1914.39 1679.36,1912.29" style="fill:none;stroke:rgb(5,0,0);stroke-width:4.02px;"/>
        <path d="M1746.07,1880.04C1751.05,1874.75 1756.54,1865.82 1762.76,1878.95C1771.24,1896.87 1766.57,1897.97 1765.88,1898.56C1751.83,1910.82 1751,1898.35 1746.2,1880.33" style="fill:none;stroke:rgb(5,0,0);stroke-width:4.02px;"/>
        <path d="M1703.33,1925.31C1705.13,1927.93 1706.55,1928.98 1732.12,1917.25C1751.84,1908.21 1753.88,1909.64 1754.87,1904.24" style="fill:none;stroke:rgb(5,0,0);stroke-width:4.02px;"/>
        <path d="M1716.47,1925.15C1717.95,1927.14 1722.37,1934.49 1727.92,1931.17C1733.23,1928 1732.83,1927.05 1750.02,1910.29" style="fill:none;stroke:rgb(5,0,0);stroke-width:4.02px;"/>
        <path d="M1750.19,1874.65C1748.74,1871.09 1748.26,1866.52 1742.72,1867.88C1738.7,1868.87 1730.29,1870.93 1695.09,1888.2C1688.92,1891.23 1691.91,1894.72 1693.67,1899.96" style="fill:none;stroke:rgb(5,0,0);stroke-width:4.02px;"/>
        <path d="M1702.86,1891.59C1693.66,1895.36 1701.41,1898.59 1703.64,1897.65C1704.83,1897.15 1707.56,1891.94 1701.38,1892.31" style="fill:none;stroke:rgb(5,0,0);stroke-width:4.02px;"/>
        <path d="M1735.15,1879.09C1735.08,1879.98 1735,1879.94 1735.14,1880.36" style="fill:none;stroke:rgb(5,0,0);stroke-width:4.02px;"/>
        <path d="M1742.27,1875.92C1740.03,1877.55 1741.37,1877.97 1741.54,1878.01C1742.08,1878.13 1742.58,1877.38 1742.64,1877.29" style="fill:none;stroke:rgb(5,0,0);stroke-width:4.02px;"/>
        <path d="M1729.13,1890.8C1716.69,1885.69 1710.85,1901.26 1718.94,1906.55C1728.79,1913 1741.75,1899.43 1729.12,1890.88" style="fill:none;stroke:rgb(5,0,0);stroke-width:4.02px;"/>
        <path d="M1729.92,1884.47C1728.84,1884.45 1720.23,1884.34 1716.68,1887.08C1705.47,1895.72 1709.43,1916.74 1727.88,1913.94C1739.31,1912.21 1747.14,1892.3 1728.75,1884.3" style="fill:none;stroke:rgb(5,0,0);stroke-width:4.02px;"/>
        <path d="M1739.74,1868.64C1740.41,1855.57 1738.52,1848.14 1727.77,1855.59C1720.51,1860.62 1726.38,1868.34 1727.58,1870.74" style="fill:none;stroke:rgb(5,0,0);stroke-width:4.02px;"/>
        <path d="M1727.71,1861.67C1731.29,1861.73 1731.23,1862.05 1734.72,1861.43" style="fill:none;stroke:rgb(5,0,0);stroke-width:4.02px;"/>
        <path d="M1728.97,1866.11C1732.55,1866.03 1732.45,1865.82 1735.99,1865.25" style="fill:none;stroke:rgb(5,0,0);stroke-width:4.02px;"/>
        <path d="M1734.52,1855.98C1734.35,1858.92 1734.29,1858.85 1733.9,1867.53" style="fill:none;stroke:rgb(5,0,0);stroke-width:4.02px;"/>
        <path d="M1730.24,1857.88C1730.21,1859.25 1730.02,1860.62 1729.99,1861.99C1729.98,1862.5 1729.99,1862.46 1729.97,1868.32" style="fill:none;stroke:rgb(5,0,0);stroke-width:4.02px;"/>
        <path d="M1725.02,1868.32C1714.53,1872.73 1693.13,1881.24 1689.08,1883.29C1679.24,1888.27 1681.7,1893.45 1683.59,1899.3" style="fill:none;stroke:rgb(5,0,0);stroke-width:4.02px;"/>
        <path d="M1724.07,1863.42C1723.3,1862.83 1717.87,1858.58 1710.22,1862.85" style="fill:none;stroke:rgb(5,0,0);stroke-width:4.02px;"/>
        <path d="M1702.22,1872.91C1701.66,1874.81 1701.7,1874.77 1701.62,1876.74" style="fill:none;stroke:rgb(5,0,0);stroke-width:4.02px;"/>
        <path d="M1699.53,1926.89C1698.3,1951.01 1702.29,1966.98 1699.7,1968.17C1693.15,1971.17 1668.38,1968.9 1648.72,1968.23" style="fill:none;stroke:rgb(5,0,0);stroke-width:4.02px;"/>
        <path d="M1635.9,1935.12C1634.99,1959.18 1634.98,1959.59 1634.95,1961.72" style="fill:none;stroke:rgb(5,0,0);stroke-width:4.02px;"/>
        <path d="M1698.74,1968.84C1698.75,1971.06 1698.76,1973.28 1698.77,1975.49" style="fill:none;stroke:rgb(5,0,0);stroke-width:4.02px;"/>
        <path d="M1693.67,1834.61C1696.07,1834.73 1703.61,1836.8 1702.06,1843.64" style="fill:none;stroke:rgb(5,0,0);stroke-width:4.02px;"/>
        <path d="M1675,1865.79C1669.36,1845.75 1648.8,1850.07 1644.51,1863.19C1638.13,1882.72 1673.67,1893.89 1674.78,1863.41" style="fill:none;stroke:rgb(5,0,0);stroke-width:4.02px;"/>
        <path d="M1675.47,1864.52L1678.97,1863.67" style="fill:none;stroke:rgb(5,0,0);stroke-width:4.02px;"/>
        <path d="M1675.63,1862.94L1678.26,1862.39" style="fill:none;stroke:rgb(5,0,0);stroke-width:4.02px;"/>
        <path d="M1675.79,1870.38C1678.25,1869.18 1680.78,1866.68 1686.41,1869.81C1696.41,1875.38 1686.09,1889.27 1675.01,1881.63" style="fill:none;stroke:rgb(5,0,0);stroke-width:4.02px;"/>
        <path d="M1680.06,1863.73C1676.56,1841.7 1700.14,1840.5 1705.69,1846.79C1712.27,1854.23 1712.09,1868.29 1702.03,1872.5C1698.73,1873.88 1696.12,1874.52 1690.6,1873.21" style="fill:none;stroke:rgb(5,0,0);stroke-width:4.02px;"/>
        <path d="M1680.69,1867.69C1680.07,1865.8 1680,1865.88 1679.6,1863.88" style="fill:none;stroke:rgb(5,0,0);stroke-width:4.02px;"/>
    </g>
</svg>
