<?xml version="1.0" encoding="UTF-8" standalone="no"?>
<!DOCTYPE svg PUBLIC "-//W3C//DTD SVG 1.1//EN" "http://www.w3.org/Graphics/SVG/1.1/DTD/svg11.dtd">
<svg width="100%" height="100%" viewBox="0 0 1024 1024" version="1.1" xmlns="http://www.w3.org/2000/svg" xmlns:xlink="http://www.w3.org/1999/xlink" xml:space="preserve" xmlns:serif="http://www.serif.com/" style="fill-rule:evenodd;clip-rule:evenodd;stroke-linecap:round;stroke-linejoin:round;stroke-miterlimit:1.5;">
    <path d="M601.089,757.615C592.528,787.03 538.101,936.469 578.216,925.918C607.058,918.332 640.222,886.512 655.868,902.97C677.45,925.672 645.542,973.667 643.505,977.686" style="fill:none;stroke:black;stroke-width:16.67px;"/>
    <path d="M640.567,923.151C640.704,923.365 641.61,924.78 639.894,926.253C639.558,926.541 627.511,934.484 626.431,935.196C584.159,963.067 556.837,978.564 539.69,965.024C536.803,962.744 528.167,955.489 524.546,929.362C516.82,873.615 542.452,791.413 556.113,756.743C557.351,753.601 560.168,752.442 560.641,752.248C561.626,751.842 562.709,751.615 563.775,751.615C567.279,751.617 569.373,753.735 569.737,754.102C572.118,756.511 572.124,759.407 572.125,759.909C572.129,762.008 571.997,762.008 571.155,763.933C553.964,803.282 524.35,891.722 536.778,941.903C541.22,959.835 549.336,963.649 561.909,961.259C579.125,957.987 605.146,942.281 637.459,922.47C637.577,922.397 638.251,921.984 639.164,922.184C640.038,922.376 640.083,922.394 640.567,923.151Z"/>
    <path d="M607.964,992.848C607.479,992.688 604.701,991.77 603.145,988.676C602.666,987.724 602.357,986.661 602.277,985.598C602.105,983.328 602.228,983.304 603.154,981.225C613.505,958.011 621.223,945.943 634.06,925.717C634.5,925.024 634.524,925.006 635.303,924.749C635.321,924.743 636.771,924.821 636.776,924.828C637.754,926.009 638.087,926.046 637.664,927.521C637.12,929.42 628.817,948.93 623.27,968.466C620.38,978.645 618.526,987.501 618.489,987.563C617.925,988.509 617.526,989.576 616.796,990.4C616.462,990.776 614.532,992.953 611.186,993.221C609.548,993.353 609.527,993.365 607.964,992.848Z"/>
    <path d="M331.567,785.577C322.296,847.28 308.344,907.829 360.967,970.269" style="fill:none;stroke:black;stroke-width:16.67px;"/>
    <path d="M369.627,778.587C345.532,855.156 369.314,941.528 381.43,948.373C392.114,954.409 435.084,913.897 450.802,913.976C471.79,914.081 460.887,982.161 459.943,988.057" style="fill:none;stroke:black;stroke-width:16.67px;"/>
    <path d="M439.955,940.882C440.856,941.805 439.981,942.957 439.873,943.099C439.603,943.454 433.512,949.71 432.955,950.281C417.256,966.404 407.347,974.61 384.138,984.346C382.724,984.939 381.418,984.355 381.204,984.259C381.189,984.252 379.181,982.128 379.181,982.119C379.209,981.144 378.873,980.084 379.272,979.194C380.037,977.486 380.253,977.572 382.023,976.962C407.881,968.043 417.091,959.745 437.73,940.916C438.207,940.481 438.231,940.466 438.877,940.456C439.491,940.447 439.527,940.443 439.955,940.882Z"/>
    <path d="M254.639,589.912C318.918,571.878 708.92,550.947 767.645,550.722" style="fill:none;stroke:black;stroke-width:7.68px;"/>
    <path d="M221.085,656.399C226.301,656.14 230.31,655.94 286.054,650.012C369.9,641.094 372.093,643.095 414.033,638.629" style="fill:none;stroke:black;stroke-width:7.68px;"/>
    <path d="M552.899,627.816C591.364,625.919 675.532,618.878 686.187,617.986C781.846,609.983 781.829,614.73 804.887,612.616" style="fill:none;stroke:black;stroke-width:7.68px;"/>
    <path d="M191.88,729.1C221.227,722.966 526.013,696.556 555.097,694.035C704.641,681.077 704.724,686.086 853.957,672.618" style="fill:none;stroke:black;stroke-width:7.68px;"/>
    <path d="M362.758,577.485C348.984,610.533 351.436,606.465 343.133,641.318" style="fill:none;stroke:black;stroke-width:7.68px;"/>
    <path d="M601.367,559.465C620.889,599.776 627.077,615.237 629.061,620.194" style="fill:none;stroke:black;stroke-width:7.68px;"/>
    <path d="M707.001,618.495C734.899,670.913 735.215,670.569 739.669,681.088" style="fill:none;stroke:black;stroke-width:7.68px;"/>
    <path d="M290.679,651.428C279.086,684.839 274.788,682.98 265.295,717.076" style="fill:none;stroke:black;stroke-width:7.68px;"/>
    <path d="M378.293,711.08C372.424,738.939 372.523,738.587 366.266,766.101" style="fill:none;stroke:black;stroke-width:7.68px;"/>
    <path d="M614.416,692.439C625.829,712.199 635.641,733.041 643.901,750.708" style="fill:none;stroke:black;stroke-width:7.68px;"/>
    <path d="M489.519,653.292C491.147,656.613 493.133,660.663 499.116,698.514" style="fill:none;stroke:black;stroke-width:7.68px;"/>
    <path d="M424.252,995.442C423.742,995.42 420.817,995.297 418.474,992.756C418.105,992.355 415.828,989.886 416.347,986.284C417.82,976.077 423.257,969.194 430.239,950.845C430.931,949.026 431.777,948.514 431.983,948.389C431.997,948.381 435.043,947.936 435.051,947.942C435.852,948.536 436.933,948.878 437.45,949.732C437.975,950.599 437.852,951.723 437.952,952.732C437.978,952.991 437.303,957.47 437.241,957.881C434.903,973.413 432.166,980.31 432.91,987.315C432.939,987.59 433.058,988.713 432.134,990.686C430.698,993.753 427.983,994.75 427.512,994.923C425.941,995.499 425.925,995.512 424.252,995.442Z"/>
    <path d="M261.662,784.8C260.358,804.757 247.423,849.751 261.271,919.762" style="fill:none;stroke:black;stroke-width:16.67px;"/>
    <path d="M298.168,780.917C283.825,878.095 287.887,905.398 293.98,943.034" style="fill:none;stroke:black;stroke-width:16.67px;"/>
    <path d="M487.688,648.874C539.527,605.443 538.088,604.345 542.578,600.598C547.569,605.438 551.079,606.773 550.02,627.52C549.72,633.39 552.473,674.904 552.863,683.816C445.887,633.376 418.378,587.552 420.165,630.622C422.585,688.951 427.405,689.886 432.152,689.263C447.544,687.243 486.343,651.101 488.996,648.907" style="fill:none;stroke:black;stroke-width:16.67px;"/>
    <path d="M378.171,446.927C385.829,430.737 418.065,347.507 474.881,342.32C538.745,336.49 577.845,425.323 582.436,435.755" style="fill:none;stroke:black;stroke-width:16.67px;"/>
    <path d="M377.394,447.704C418.72,523.136 531.155,516.987 580.887,437.627" style="fill:none;stroke:black;stroke-width:16.67px;"/>
    <path d="M455.843,380.906C454.101,385.702 441.728,419.77 448.839,444.299C463.068,493.386 451.758,430.035 458.819,379.621" style="fill:none;stroke:black;stroke-width:16.67px;"/>
    <path d="M465.353,292.105C466.301,292.521 466.295,292.601 466.662,293.567C467.132,294.808 466.992,294.855 466.608,296.126C463.118,307.695 461.315,325.733 471.383,335.842C472.779,337.244 472.725,337.327 473.214,339.242C473.339,339.729 474.056,342.538 472.363,345.464C472.105,345.91 470.617,348.481 467.228,349.363C463.942,350.219 461.441,348.765 461.007,348.512C459.122,347.417 459.123,347.35 458.007,345.479C448.042,328.778 453.159,308.344 461.752,293.544C462.315,292.575 462.344,292.545 463.386,292.128C464.348,291.744 464.403,291.687 465.353,292.105Z"/>
    <path d="M525.579,310.508C525.861,310.656 527.374,311.453 528.024,313.643C528.228,314.329 528.317,315.061 528.279,315.777C528.239,316.519 528.006,317.241 527.796,317.954C527.45,319.123 523.69,326.854 522.889,331.96C522.215,336.25 522.469,345.743 522.389,346.004C522.066,347.053 521.937,348.183 521.418,349.15C521.18,349.592 519.811,352.141 516.564,353.133C513.211,354.157 510.58,352.743 510.124,352.498C507.132,350.891 506.287,348.124 506.14,347.644C505.82,346.595 505.768,345.466 505.802,344.369C505.812,344.064 507.031,338.031 507.142,337.481C509.335,326.629 510.873,324.137 518.18,312.901C519.437,310.968 521.281,310.372 521.611,310.265C523.784,309.562 525.298,310.359 525.579,310.508Z"/>
    <path d="M415.763,321.892C416.767,322.159 416.802,322.202 417.32,323.099C417.953,324.195 417.718,324.271 417.54,325.524C416.193,335.036 413.083,345.996 428.486,355.347C430.314,356.457 430.347,356.498 431.346,358.391C431.581,358.835 432.935,361.399 431.972,364.639C431.825,365.133 430.979,367.98 427.89,369.629C424.894,371.228 422.123,370.399 421.642,370.255C419.427,369.592 419.425,369.493 417.854,367.8C399.367,347.879 409.213,331.504 412.581,323.726C413.097,322.536 413.631,322.227 413.767,322.148C414.686,321.618 414.741,321.62 415.763,321.892Z"/>
    <path d="M418.133,489.945C419.048,489.347 419.869,488.57 420.881,488.159C421.347,487.971 424.034,486.881 427.161,488.165C427.638,488.361 430.385,489.489 431.715,492.728C433.005,495.869 431.901,498.543 431.71,499.007C430.903,500.961 430.911,501.034 429.2,502.28C423.699,506.287 415.816,507.26 412.661,520.522C412.372,521.737 412.578,521.881 411.652,522.721C410.692,523.592 410.625,523.603 409.332,523.543C408.065,523.483 408.012,523.439 407.162,522.502C406.988,522.311 406.442,521.708 406.228,519.402C404.523,501.007 416.384,493.623 418.133,489.945ZM418.133,489.945C418.128,489.948 418.122,489.952 418.117,489.955C418.12,489.95 418.141,489.929 418.137,489.936C418.136,489.939 418.135,489.942 418.133,489.945Z"/>
    <path d="M457.765,545.161C457.466,545.293 455.765,546.043 453.682,545.233C453.04,544.983 452.432,544.608 451.93,544.136C451.759,543.975 451.282,543.527 450.294,541.691C443.654,529.358 443.185,524.406 447.27,513.475C448.204,510.977 448.521,510.289 450.674,504.653C451.166,503.366 452.479,502.203 452.677,502.028C455.22,499.777 458.108,499.941 458.61,499.97C462.109,500.168 464.09,502.405 464.433,502.793C464.766,503.169 466.683,505.335 466.491,508.725C466.351,511.199 466.127,511.174 464.85,513.301C459.651,521.966 457.768,524.433 457.948,527.886C458.139,531.53 460.431,537.683 460.525,538.086C460.684,538.773 460.981,539.441 461.001,540.146C461.063,542.326 459.757,543.687 459.533,543.92C458.775,544.71 458.767,544.72 457.765,545.161Z"/>
    <path d="M512.935,533.313C512.246,533.756 512.191,533.687 511.396,533.501C510.102,533.197 510.205,532.977 509.284,532.013C501.189,523.545 495.62,520.845 494.51,511.773C493.982,507.456 494.68,502.583 495.348,498.572C495.544,497.394 496.852,495.926 497.027,495.729C497.362,495.354 499.287,493.194 502.676,492.986C503.192,492.954 506.174,492.77 508.791,495.103C509.166,495.437 511.326,497.362 511.534,500.751C511.711,503.62 511.299,503.586 509.911,506.099C506.216,512.789 506.522,514.29 507.423,516.782C508.474,519.695 510.915,523.785 513.565,530.179C513.923,531.044 513.933,531.068 513.748,531.989C513.587,532.792 513.626,532.869 512.935,533.313Z"/>
    <g transform="matrix(5.62252,0,0,5.62252,-4356.1,-1974.32)">
        <circle cx="865.822" cy="442.207" r="86.455" style="fill:none;stroke:black;stroke-width:3.71px;"/>
    </g>
    <path d="M164.755,773.082C211.225,639.404 449.921,195.197 478.96,200.827C521.496,209.073 881.609,695.835 890.714,721.898C898.29,743.585 485.211,759.628 239.965,783.265C195.794,787.523 156.892,795.704 164.755,773.082Z" style="fill:none;stroke:black;stroke-width:16.67px;"/>
    <path d="M590.25,247.524C622.634,217.279 599.928,283.001 630.296,287.357C698.048,297.073 679.135,186.55 652.758,194.35C631.241,200.713 617.463,235.219 606.147,217.825C592.888,197.446 661.088,128.556 687.295,164.958C701.247,184.338 695.221,186.142 696.133,210.016C726.401,152.936 687.724,146.53 701.519,119.48C709.24,104.34 734.518,116.936 736.959,144.718C740.22,181.841 707.15,225.706 707.15,225.706C707.15,225.706 728.102,220.58 741.723,202.844C753.196,187.905 756.534,159.958 767.1,159.201C779.665,158.301 778.798,171.214 778.494,185.786C777.649,226.258 720.893,246.779 710.499,276.394C829.944,266.704 887.005,347.41 887.296,356.681C888.061,380.982 843.088,500.129 763.507,542.726" style="fill:none;stroke:black;stroke-width:16.67px;"/>
    <path d="M590.25,247.524C575.107,277.488 607.211,333.229 668.611,304.866C730.463,276.293 844.071,341.229 845.344,360.566C848.007,401.04 834.08,450.423 746.353,502.983" style="fill:none;stroke:black;stroke-width:16.67px;"/>
    <path d="M498.428,32.625C496.308,82.997 495.029,82.684 473.311,171.25C404.392,155.99 400.575,160.126 400.989,165.912C402.548,187.704 469.336,201.29 474.628,201.836" style="fill:none;stroke:black;stroke-width:16.67px;"/>
    <path d="M568.023,34.489C553.92,109.237 523.825,185.118 544.022,198.118C544.636,198.512 614.747,224.934 610.449,233.134C608.132,237.556 547.366,232.596 495.443,209.485" style="fill:none;stroke:black;stroke-width:16.67px;"/>
</svg>
