<?xml version="1.0" encoding="UTF-8" standalone="no"?>
<!DOCTYPE svg PUBLIC "-//W3C//DTD SVG 1.1//EN" "http://www.w3.org/Graphics/SVG/1.1/DTD/svg11.dtd">
<svg width="100%" height="100%" viewBox="0 0 1024 1024" version="1.1" xmlns="http://www.w3.org/2000/svg" xmlns:xlink="http://www.w3.org/1999/xlink" xml:space="preserve" xmlns:serif="http://www.serif.com/" style="fill-rule:evenodd;clip-rule:evenodd;stroke-linecap:round;stroke-linejoin:round;stroke-miterlimit:1.5;">
    <g transform="matrix(5.62252,0,0,5.62252,-4356.1,-1974.32)">
        <circle cx="865.822" cy="442.207" r="86.455" style="fill:none;stroke:black;stroke-width:3.71px;"/>
    </g>
    <path d="M481.567,200.167C611.309,141.404 827.724,235.592 689.131,502.339" style="fill:none;stroke:black;stroke-width:16.67px;"/>
    <path d="M645.406,457.456C668.55,420.009 693.025,455.89 689.163,489.617C683.318,540.676 651.865,550.674 642.637,515.033" style="fill:none;stroke:black;stroke-width:16.67px;"/>
    <path d="M583.511,180.749C572.613,108.866 655.321,89.549 697.299,107.321C739.158,125.043 767.805,211.246 701.575,237.865" style="fill:none;stroke:black;stroke-width:16.67px;"/>
    <path d="M610.211,183.176C601.574,141.988 645.586,119.517 667.952,138.218C679.017,147.469 703.626,183.67 660.714,206.961" style="fill:none;stroke:black;stroke-width:16.67px;"/>
    <path d="M657.878,133.301C664.039,110.857 681.427,104.194 710.867,117.119" style="fill:none;stroke:black;stroke-width:16.67px;"/>
    <path d="M691.524,172.253C698.755,173.764 720.048,167.681 736.46,195.979" style="fill:none;stroke:black;stroke-width:16.67px;"/>
    <path d="M683.029,196.526C696.84,202.685 702.108,199.507 711.059,221.517" style="fill:none;stroke:black;stroke-width:16.67px;"/>
    <path d="M722.64,228.403C763.24,347.548 929.067,547.929 985.696,621.7" style="fill:none;stroke:black;stroke-width:16.67px;"/>
    <path d="M731.574,389.493C780.359,519.6 817.89,552.074 949.179,714.014" style="fill:none;stroke:black;stroke-width:16.67px;"/>
    <path d="M646.62,530.654C636.518,546.65 611.286,585.631 622.364,663.298" style="fill:none;stroke:black;stroke-width:16.67px;"/>
    <path d="M619.92,713.531C605.123,614.851 675.656,707.172 690.654,729.809C767.48,845.768 705.015,870.871 673.63,871.865" style="fill:none;stroke:black;stroke-width:16.67px;"/>
    <path d="M625.988,672.267C685.069,500.499 820.872,708.154 731.618,822.367" style="fill:none;stroke:black;stroke-width:16.67px;"/>
    <path d="M754.633,685.617C765.434,699.368 802.259,746.248 797.263,899.996" style="fill:none;stroke:black;stroke-width:16.67px;"/>
    <path d="M747.351,805.766C731.187,905.89 725.443,909.093 687.408,963.942" style="fill:none;stroke:black;stroke-width:16.67px;"/>
    <path d="M721.865,916.206C756.344,901.263 755.926,897.799 793.064,900.17" style="fill:none;stroke:black;stroke-width:16.67px;"/>
    <path d="M706.088,842.175C688.566,851.408 584.069,906.47 508.241,990.999" style="fill:none;stroke:black;stroke-width:16.67px;"/>
    <path d="M652.688,691.685C615.754,731.312 577.392,756.43 525.682,811.828C450.539,892.33 395.287,941.617 383.35,952.265" style="fill:none;stroke:black;stroke-width:16.67px;"/>
    <path d="M334.718,389.492C326.7,408.054 327.225,445.433 374.178,454.252" style="fill:none;stroke:black;stroke-width:16.67px;"/>
    <path d="M368.7,412.551C371,430.392 367.416,434.804 376.985,454.372" style="fill:none;stroke:black;stroke-width:16.67px;"/>
    <path d="M361.418,376.143C367.088,419.486 380.097,436.719 418.206,442.219" style="fill:none;stroke:black;stroke-width:16.67px;"/>
    <path d="M425.74,365.22C390.83,331.605 379.481,392.273 420.414,440.81" style="fill:none;stroke:black;stroke-width:16.67px;"/>
    <path d="M433.022,366.434C436.146,322.952 463.148,326.339 464.054,326.639C498.543,338.028 480.853,385.685 479.024,390.613" style="fill:none;stroke:black;stroke-width:16.67px;"/>
    <path d="M479.14,396.774C496.999,397.518 511.256,396.452 525.439,366.557C534.498,347.461 513.659,313.188 511.2,309.145" style="fill:none;stroke:black;stroke-width:16.67px;"/>
    <path d="M515.548,314.248C526.738,326.238 565.922,366.498 529.82,397.413" style="fill:none;stroke:black;stroke-width:16.67px;"/>
    <path d="M528.898,399.202C592.188,412.669 591.716,345.589 584.827,332.788" style="fill:none;stroke:black;stroke-width:16.67px;"/>
    <path d="M585.582,332.39C626.787,379.738 591.258,403.108 571.896,410.374" style="fill:none;stroke:black;stroke-width:16.67px;"/>
    <path d="M575.016,414.979C578.281,415.922 599.437,422.033 616.81,407.392C634.706,392.309 632.653,365.792 632.653,365.792" style="fill:none;stroke:black;stroke-width:16.67px;"/>
    <path d="M601.716,418.62C608.943,425.159 654.612,459.281 667.86,399.775" style="fill:none;stroke:black;stroke-width:16.67px;"/>
    <path d="M638.125,439.251C637.874,441.607 633.875,451.02 639.994,460.032" style="fill:none;stroke:black;stroke-width:16.67px;"/>
    <path d="M547.103,434.397C527.629,489.599 556.331,509.246 571.996,506.393C611.847,499.134 597.369,441.779 595.914,436.013" style="fill:none;stroke:black;stroke-width:16.67px;"/>
    <path d="M515.548,456.242C524.067,431.522 566.229,414.816 593.292,432.691" style="fill:none;stroke:black;stroke-width:16.67px;"/>
    <path d="M396.613,514.496C425.411,496.741 436.114,510.185 446.517,519.011" style="fill:none;stroke:black;stroke-width:16.67px;"/>
    <path d="M361.082,483.943C401.458,566.145 389.875,589.387 435.704,619.564C470.948,642.77 472.516,643.834 516.217,653.243" style="fill:none;stroke:black;stroke-width:16.67px;"/>
    <path d="M514.335,654.063C568.405,628.228 585.165,613.102 625.922,573.08" style="fill:none;stroke:black;stroke-width:16.67px;"/>
    <path d="M533.753,666.199C531.553,664.853 508.283,650.604 501.584,664.081C495.469,676.382 526.717,699.21 528.14,700.086" style="fill:none;stroke:black;stroke-width:16.67px;"/>
    <path d="M534.966,666.199C536.48,664.932 554.35,649.975 559.161,661.346C563.216,670.931 532.639,696.639 530.317,698.971" style="fill:none;stroke:black;stroke-width:16.67px;"/>
    <path d="M562.383,663.45C586.641,662.934 602.87,647.309 617.573,629.69" style="fill:none;stroke:black;stroke-width:16.67px;"/>
    <path d="M556.812,680.763C581.613,684.187 586.085,686.624 617.038,666.17" style="fill:none;stroke:black;stroke-width:16.67px;"/>
    <path d="M508.267,689.258C455.483,696.999 467.915,760.671 468.034,781.705" style="fill:none;stroke:black;stroke-width:16.67px;"/>
    <path d="M590.793,685.617C519.05,733.614 506.418,750.978 477.744,785.763" style="fill:none;stroke:black;stroke-width:16.67px;"/>
    <path d="M484.872,788.937C512.599,762.309 544.144,738.911 578.38,750.497" style="fill:none;stroke:black;stroke-width:16.67px;"/>
    <path d="M496.13,681.976C464.292,692.602 430.85,684.544 412.877,682.179C403.616,703.099 381.566,729.162 414.442,781.624" style="fill:none;stroke:black;stroke-width:16.67px;"/>
    <path d="M403.895,683.19C378.618,665.58 375.561,658.485 332.708,658.706" style="fill:none;stroke:black;stroke-width:16.67px;"/>
    <path d="M337.145,664.986C342.057,670.158 341.43,669.794 347.528,673.843" style="fill:none;stroke:black;stroke-width:16.67px;"/>
    <path d="M407.536,684.404C361.273,673.719 361.259,678.082 313.443,676.538" style="fill:none;stroke:black;stroke-width:16.67px;"/>
    <path d="M328.65,742.658C314.184,697.307 307.719,675.024 329.273,680.343C361.828,688.378 347.802,763.688 347.658,765.022" style="fill:none;stroke:black;stroke-width:16.67px;"/>
    <path d="M350.495,775.426C340.061,739.34 326.62,744.473 286.209,754.791" style="fill:none;stroke:black;stroke-width:16.67px;"/>
    <path d="M283.41,753.258C279.515,711.154 268.871,699.892 223.753,695.243C238.431,718.364 248.606,711.638 255.469,738.643C259.351,753.916 248.827,766.699 267.705,808.686" style="fill:none;stroke:black;stroke-width:16.67px;"/>
    <path d="M291.027,794.844C331.018,772.363 371.107,768.36 363.009,810.82" style="fill:none;stroke:black;stroke-width:16.67px;"/>
    <path d="M312.873,833.68C332.876,821.736 352.226,807.398 369.605,817.335C390.78,829.444 364.385,847.551 363.269,849.562" style="fill:none;stroke:black;stroke-width:16.67px;"/>
    <path d="M360.204,833.68C360.204,833.68 358.944,846.695 361.27,859.945C364.556,878.663 349.475,899.831 349.188,900.43" style="fill:none;stroke:black;stroke-width:16.67px;"/>
    <path d="M95.575,639.952C56.304,609.249 69.095,577.131 91.315,546.731" style="fill:none;stroke:black;stroke-width:16.67px;"/>
    <path d="M93.206,546.05C93.115,630.186 126.913,616.614 160.455,667.8C230.458,774.625 241.516,765.967 311.981,871.82" style="fill:none;stroke:black;stroke-width:16.67px;"/>
    <path d="M361.418,946.547L384.773,974.998" style="fill:none;stroke:black;stroke-width:16.67px;"/>
    <path d="M366.272,948.974C366.159,930.212 366.546,928.416 350.037,919.519C339.251,855.865 259.978,883.931 254.551,913.173" style="fill:none;stroke:black;stroke-width:16.67px;"/>
    <path d="M345.712,908.427C318.813,900.07 297.715,910.422 282.165,931.78" style="fill:none;stroke:black;stroke-width:16.67px;"/>
    <path d="M360.831,936.019C339.218,919.492 305.503,933.478 302.933,950.989" style="fill:none;stroke:black;stroke-width:16.67px;"/>
    <path d="M447.585,798.485C428.184,753.309 382.292,812.531 425.747,863.931" style="fill:none;stroke:black;stroke-width:16.67px;"/>
    <path d="M450.013,802.125C451.166,800.015 465.712,773.406 478.812,793.519C500.236,826.411 439.221,863.265 436.239,865.683" style="fill:none;stroke:black;stroke-width:16.67px;"/>
    <path d="M442.556,808.135C419.19,804.487 418.169,855.956 436.545,856.164C455.763,856.381 465.694,811.748 442.556,808.135Z" style="fill:none;stroke:black;stroke-width:16.67px;"/>
    <path d="M44.661,620.081C91.044,631.44 94.313,638.517 95.707,639.288" style="fill:none;stroke:black;stroke-width:16.67px;"/>
    <path d="M91.993,754.794C97.797,758.735 107.947,773.669 164.531,794.194" style="fill:none;stroke:black;stroke-width:16.67px;"/>
    <path d="M152.674,791.203C191.785,862.787 192.978,861.787 210.59,892.079" style="fill:none;stroke:black;stroke-width:16.67px;"/>
    <path d="M479.842,199.844C442.464,179.62 408.09,195.989 357.904,232.623" style="fill:none;stroke:black;stroke-width:16.67px;"/>
    <path d="M436.663,191.671C451.925,126.324 373.76,129.486 348.116,143.147C301.861,167.787 276.76,221.792 331.862,246.113" style="fill:none;stroke:black;stroke-width:16.67px;"/>
    <path d="M405.108,200.167C357.698,138.743 290.228,222.399 354.759,239.794" style="fill:none;stroke:black;stroke-width:16.67px;"/>
    <path d="M419.672,150.408C420.774,162.604 427.53,170.95 416.687,196.873" style="fill:none;stroke:black;stroke-width:16.67px;"/>
    <path d="M385.69,140.699C397.124,160.254 397.852,160.774 393.746,182.944" style="fill:none;stroke:black;stroke-width:16.67px;"/>
    <path d="M328.65,163.758C340.119,168.229 341.105,166.503 348.505,176.326" style="fill:none;stroke:black;stroke-width:16.67px;"/>
    <path d="M377.195,272.984C375.921,269.358 361.593,228.555 342.788,239.449C326.838,248.69 361.641,281.301 364.536,284.014" style="fill:none;stroke:black;stroke-width:16.67px;"/>
    <path d="M378.408,283.907C338.745,289.551 367.194,310.66 375.495,308.109C380.886,306.453 394.633,286.566 376.516,277.509" style="fill:none;stroke:black;stroke-width:16.67px;"/>
    <path d="M349.281,283.907C331.453,296.526 346.226,314.664 361.524,299.773" style="fill:none;stroke:black;stroke-width:16.67px;"/>
    <path d="M340.244,287.226C338.791,286.786 324.175,265.661 314.528,286.959C309.385,298.316 333.483,299.555 335.437,299.57" style="fill:none;stroke:black;stroke-width:16.67px;"/>
    <path d="M515.603,262.868C501.861,261.15 492.503,289.145 517.984,286.366C537.131,284.278 533.343,265.085 515.603,262.868Z" style="fill:none;stroke:black;stroke-width:16.67px;"/>
    <path d="M527.904,266.097C543.01,254.092 551.717,253.212 553.212,273.591C554.244,287.664 532.72,284.17 531.926,284.167" style="fill:none;stroke:black;stroke-width:16.67px;"/>
    <path d="M558.025,255.994C559.834,255.431 582.682,248.319 579.883,265.096C578.443,273.728 562.679,279.84 560.85,280.549" style="fill:none;stroke:black;stroke-width:16.67px;"/>
    <path d="M502.579,263.231C502.648,236.146 522.088,224.396 546.361,200.999" style="fill:none;stroke:black;stroke-width:16.67px;"/>
    <path d="M553.171,194.099C552.877,238.379 543.832,245.366 535.696,260.033" style="fill:none;stroke:black;stroke-width:16.67px;"/>
    <path d="M555.598,215.944C563.247,207.091 562.41,206.579 572.326,200.863" style="fill:none;stroke:black;stroke-width:16.67px;"/>
    <path d="M579.87,198.953C577.833,233.9 574.545,233.095 554.407,262.036" style="fill:none;stroke:black;stroke-width:16.67px;"/>
    <path d="M581.084,217.158C588.729,210.885 588.522,211.741 596.556,206.811" style="fill:none;stroke:black;stroke-width:16.67px;"/>
    <path d="M602.929,208.662C593.234,243.394 591.332,242.533 566.596,268.983" style="fill:none;stroke:black;stroke-width:16.67px;"/>
    <path d="M312.873,296.043C308.442,298.54 274.847,317.476 271.193,344.04C266.612,377.351 272.671,387.277 276.578,396.682" style="fill:none;stroke:black;stroke-width:16.67px;"/>
    <path d="M314.086,344.588C307.084,352.083 236.997,421.846 305.512,471.718" style="fill:none;stroke:black;stroke-width:16.67px;"/>
    <path d="M301.95,427.115C300.634,432.671 291.822,456.628 317.983,489.579C331.848,507.042 364.99,507.826 369.353,507.929" style="fill:none;stroke:black;stroke-width:16.67px;"/>
    <path d="M317.727,444.106C319.48,448.525 328.333,485.06 374.308,479.675" style="fill:none;stroke:black;stroke-width:16.67px;"/>
    <path d="M343.213,439.251C351.793,468.846 372.349,477.917 374.637,479.499" style="fill:none;stroke:black;stroke-width:16.67px;"/>
    <path d="M291.027,458.669C230.28,634.32 202.997,670.611 185.155,702.438" style="fill:none;stroke:black;stroke-width:16.67px;"/>
    <path d="M331.077,507.214C308.645,575.628 306.722,574.411 253.902,688.926" style="fill:none;stroke:black;stroke-width:16.67px;"/>
    <path d="M236.414,723.24C232.541,732.224 228.667,741.209 224.793,750.193" style="fill:none;stroke:black;stroke-width:16.67px;"/>
    <path d="M307.958,696.582C292.909,712.748 294.001,719.419 302.556,745.475" style="fill:none;stroke:black;stroke-width:16.67px;"/>
    <path d="M462.536,530.783C448.716,543.614 458.375,545.93 470.659,560.245" style="fill:none;stroke:black;stroke-width:16.67px;"/>
    <path d="M480.012,585.153C481.792,585.445 483.573,585.737 485.353,586.029" style="fill:none;stroke:black;stroke-width:16.67px;"/>
    <path d="M508.168,582.241C526.099,582.044 533.369,571.452 535.186,569.561" style="fill:none;stroke:black;stroke-width:16.67px;"/>
    <path d="M491.663,398.74C470.882,410.641 462.795,428.871 452.133,445.741C443.262,429.252 430.432,429.587 411.531,425.483" style="fill:none;stroke:black;stroke-width:16.67px;"/>
    <path d="M480.012,373.497C445.365,400.558 447.56,403.444 441.56,404.598C438.566,405.174 437.847,408.078 398.47,391.006" style="fill:none;stroke:black;stroke-width:16.67px;"/>
    <path d="M432.806,868.97C437.409,883.061 437.862,882.662 448.061,893.831" style="fill:none;stroke:black;stroke-width:16.67px;"/>
    <path d="M489.506,803.726C498.782,810.591 498.979,809.913 507.058,817.75" style="fill:none;stroke:black;stroke-width:16.67px;"/>
    <path d="M613.005,900.039C614.57,902.275 617.061,905.834 634.317,926.681" style="fill:none;stroke:black;stroke-width:16.67px;"/>
    <path d="M637.86,929.555C608.85,942.1 602.527,945.229 555.187,986.449" style="fill:none;stroke:black;stroke-width:16.67px;"/>
    <path d="M357.464,729.161C391.663,743.289 388.442,748.256 399.318,760.251" style="fill:none;stroke:black;stroke-width:16.67px;"/>
    <path d="M421.932,868.194C401.489,882.696 382.478,890.525 369.504,943.169" style="fill:none;stroke:black;stroke-width:16.67px;"/>
    <path d="M329.326,250.223C316.337,252.339 314.363,262.452 320.121,274.393" style="fill:none;stroke:black;stroke-width:16.67px;"/>
</svg>
