<?xml version="1.0" encoding="UTF-8" standalone="no"?>
<!DOCTYPE svg PUBLIC "-//W3C//DTD SVG 1.1//EN" "http://www.w3.org/Graphics/SVG/1.1/DTD/svg11.dtd">
<svg width="100%" height="100%" viewBox="0 0 1024 1024" version="1.1" xmlns="http://www.w3.org/2000/svg" xmlns:xlink="http://www.w3.org/1999/xlink" xml:space="preserve" xmlns:serif="http://www.serif.com/" style="fill-rule:evenodd;clip-rule:evenodd;stroke-linecap:round;stroke-linejoin:round;stroke-miterlimit:1.5;">
    <g transform="matrix(5.62252,0,0,5.62252,-4356.1,-1974.32)">
        <circle cx="865.822" cy="442.207" r="86.455" style="fill:none;stroke:black;stroke-width:3.71px;"/>
    </g>
    <path d="M728.233,423.686C715.678,403.656 675.635,207.456 436.385,275.212C347.396,300.414 344.105,369.87 284.385,406.858" style="fill:none;stroke:black;stroke-width:13.82px;"/>
    <path d="M285.503,409.123C303.478,410.223 303.334,410.255 321.016,405.934C306.05,452.343 300.012,452.02 274.034,475.853C304.189,470.39 304.511,469.802 321.752,452.599C323.271,482.522 322.018,481.958 321.12,511.37C324.798,504.815 328.477,498.259 332.155,491.703" style="fill:none;stroke:black;stroke-width:13.82px;"/>
    <path d="M333.077,490.678C333.103,487.232 333.833,391.515 370.886,470.043C366.943,448.461 367.972,448.622 368.17,426.61C371.82,431.914 375.469,437.218 379.118,442.522C381.309,418.224 380.373,418.531 379.653,394.163C387.317,408.114 387.147,407.778 394.184,422.044C396.045,349.065 403.078,325.661 432.521,277.75" style="fill:none;stroke:black;stroke-width:13.82px;"/>
    <path d="M433.08,276.109C434.105,283.99 438.93,321.095 437.541,375.351C438.027,366.436 441.095,310.117 469.792,268.514" style="fill:none;stroke:black;stroke-width:13.82px;"/>
    <path d="M484.537,268.342C518.041,324.181 525.086,362.914 533.869,399.303C538.325,348.36 544.166,323.797 536.959,285.251C583.15,399.623 590.861,395.382 591.437,396.202C571.07,330.937 582.195,325.463 568.706,267.805" style="fill:none;stroke:black;stroke-width:13.82px;"/>
    <path d="M590.365,274.168C645.189,325.839 636.606,397.538 635.256,408.812C644.708,390.197 644.729,390.478 650.089,369.977C665.626,405.282 662.334,412.692 652.986,450.315C660.98,435.883 660.876,436.298 667.938,421.012C674.188,446.93 671.1,447.061 664.192,472.965C690.651,437.433 695.843,444.512 700.312,445.853C712.785,434.992 709.59,433.146 710.665,416.55C715.84,420.14 721.014,423.73 726.189,427.32" style="fill:none;stroke:black;stroke-width:13.82px;"/>
    <path d="M336.961,480.969C343.503,516.261 379.117,520.637 392.807,523.134" style="fill:none;stroke:black;stroke-width:13.82px;"/>
    <path d="M371.913,461.551C379.996,482.793 392.86,565.208 504.544,591.679C539.706,600.013 580.484,579.061 591.439,571.511C636.215,540.649 625.666,531.718 673.325,456.41" style="fill:none;stroke:black;stroke-width:13.82px;"/>
    <path d="M699.106,446.017C728.729,499.009 647.031,529.341 643.358,518.33" style="fill:none;stroke:black;stroke-width:13.82px;"/>
    <path d="M372.884,473.202C359.188,469.299 354.203,468.207 353.004,482.455C352.185,492.188 378.795,501.772 381.422,502.719" style="fill:none;stroke:black;stroke-width:13.82px;"/>
    <path d="M594.249,571.263C593.691,623.13 594.831,622.956 607.028,670.19" style="fill:none;stroke:black;stroke-width:13.82px;"/>
    <path d="M446.672,574.176C451.657,650.741 444.91,652.98 419.435,669.167C396.461,683.765 356.177,766.405 433.103,836.925C456.118,858.024 452.824,861.843 447.592,913.603C443.722,951.883 443.486,951.282 439.926,989.235" style="fill:none;stroke:black;stroke-width:13.82px;"/>
    <path d="M608.812,673.207C656.573,702.141 662.824,702.641 667.762,758.17C670.511,789.082 615.642,835.014 615.843,849.432C616.329,884.245 624.795,965.589 625.843,975.665" style="fill:none;stroke:black;stroke-width:13.82px;"/>
    <path d="M624.347,678.062C628.284,677.167 659.744,666.134 666.081,673.847C678.617,689.106 688.461,722.887 689.772,727.383" style="fill:none;stroke:black;stroke-width:13.82px;"/>
    <path d="M683.572,695.538C710.856,702.817 698.657,717.058 710.003,723.26C731.889,735.224 809.55,787.719 814.911,792.117C834.732,808.38 835.312,840.519 838.664,864.163" style="fill:none;stroke:black;stroke-width:13.82px;"/>
    <path d="M778.72,831.464C776.556,865.378 761.719,898.79 745.89,941.241" style="fill:none;stroke:black;stroke-width:13.82px;"/>
    <path d="M808.818,849.911C803.913,865.647 799.021,887.261 765.296,924.485" style="fill:none;stroke:black;stroke-width:13.82px;"/>
    <path d="M744.738,895.543C748.913,916.206 747.92,916.126 744.321,937.081" style="fill:none;stroke:black;stroke-width:13.82px;"/>
    <path d="M419.487,666.411C411.868,662.866 396.846,650.806 389.092,661.94C379.08,676.318 369.74,713.049 368.569,717.653" style="fill:none;stroke:black;stroke-width:13.82px;"/>
    <path d="M377.739,683.887C362.192,684.453 342.998,673.267 344.216,712.152C230.454,757.994 198.715,773.362 199.873,874.826" style="fill:none;stroke:black;stroke-width:13.82px;"/>
    <path d="M230.162,844.086C243.687,887.932 242.995,889.131 273.889,933.032" style="fill:none;stroke:black;stroke-width:13.82px;"/>
    <path d="M253.463,828.551C270.498,902.711 269.94,903.035 292.347,943.064" style="fill:none;stroke:black;stroke-width:13.82px;"/>
    <path d="M411.72,864.474C385.518,866.619 393.689,888.115 410.265,887.663C419.244,887.418 436.059,870.53 413.09,866.522" style="fill:none;stroke:black;stroke-width:13.82px;"/>
    <path d="M405.895,954.768C382.731,962.085 393.031,980.572 406.58,977.436C411.01,976.411 424.221,958.039 403.406,953.068" style="fill:none;stroke:black;stroke-width:13.82px;"/>
    <path d="M548.617,742.141C559.707,729.902 560.359,730.737 576.289,728.676C582.359,727.89 644.629,719.834 652.198,719.112" style="fill:none;stroke:black;stroke-width:13.82px;"/>
    <path d="M403.953,723.694C469.893,732.69 484.814,707.029 503.194,746.868" style="fill:none;stroke:black;stroke-width:13.82px;"/>
    <path d="M408.807,776.123C416.232,784.277 419.535,796.1 440.419,800.658C444.406,801.528 446.762,815.133 459.781,814.113C474.872,812.931 469.549,822.85 482.625,830.376C499.485,840.081 507.811,889.171 529.931,855.639C532.907,851.127 545.616,851.193 549.971,848.643C551.653,847.658 551.578,847.701 562.087,827.508C594.166,819.628 596.318,816.819 598.188,814.38C618.865,787.402 625.078,793.992 647.438,768.624C648.885,794.128 638.524,790.28 605.585,840.573C600.372,848.533 531.812,886.636 565.264,901.565C568.396,928.594 585.5,932.357 595.464,937.202C595.768,961.672 606.504,962.276 624.67,976.509" style="fill:none;stroke:black;stroke-width:13.82px;"/>
    <path d="M408.807,778.064C411.462,782.342 420.572,791.89 421.231,808.652C421.367,812.111 495.151,889.679 489.216,897.373C482.181,906.493 490.267,909.119 484.435,918.765C477.405,930.392 457.941,929.845 459.461,938.751C462.566,956.948 454.361,954.602 443.202,974.897" style="fill:none;stroke:black;stroke-width:13.82px;"/>
    <path d="M454.439,989.721C466.658,974 478.327,956.626 489.747,965.784C496.88,971.505 524.668,887.008 550.058,958.483C567.33,953.377 563.277,964.498 574.459,973.247C577.891,975.932 580.594,975.44 581.146,975.339C596.721,972.5 596.092,975.95 606.953,980.771" style="fill:none;stroke:black;stroke-width:13.82px;"/>
    <path d="M518.519,771.268L518.519,806.706" style="fill:none;stroke:black;stroke-width:13.82px;"/>
    <path d="M533.082,779.035C532.354,784.012 529.591,802.895 527.711,841.682" style="fill:none;stroke:black;stroke-width:13.82px;"/>
    <path d="M586.482,918.845C602.278,921.321 601.717,921.167 618.043,923.461" style="fill:none;stroke:black;stroke-width:13.82px;"/>
    <path d="M449.585,913.019C461.729,912.313 471.474,912.282 473.378,912.275" style="fill:none;stroke:black;stroke-width:13.82px;"/>
    <path d="M412.691,376.112C443.405,387.495 477.539,403.692 488.333,408.273" style="fill:none;stroke:black;stroke-width:13.82px;"/>
    <path d="M561.238,395.53C597.786,387.335 595.382,380.263 631.719,372.141" style="fill:none;stroke:black;stroke-width:13.82px;"/>
    <path d="M510.752,438.25C514.671,468.176 490.608,470.314 507.573,495.447" style="fill:none;stroke:black;stroke-width:13.82px;"/>
    <path d="M526.286,488.736L527.967,489.297" style="fill:none;stroke:black;stroke-width:13.82px;"/>
    <path d="M438.905,515.922C443.611,519.535 464.196,535.338 510.271,536.111C562.109,536.981 562.392,536.49 596.295,522.967" style="fill:none;stroke:black;stroke-width:13.82px;"/>
    <path d="M587.453,489.707C611.2,488.186 611.019,487.624 624.624,480.523" style="fill:none;stroke:black;stroke-width:13.82px;"/>
    <path d="M600.074,484.853C600.422,489.9 600.769,494.948 601.117,499.995" style="fill:none;stroke:black;stroke-width:13.82px;"/>
    <path d="M628.23,476.115C629.924,481.8 631.618,487.485 633.311,493.169" style="fill:none;stroke:black;stroke-width:13.82px;"/>
    <path d="M561.238,433.395C586.597,398.147 618.091,400.398 635.309,437.121" style="fill:none;stroke:black;stroke-width:13.82px;"/>
    <path d="M599.103,428.541C580.952,449.944 608.35,448.174 609.317,441.405C610.712,431.647 601.623,431.031 599.015,434.916C598.713,435.366 598.864,446.869 604.152,437.207" style="fill:none;stroke:black;stroke-width:13.82px;"/>
    <path d="M560.267,453.784C592.638,488.256 624.629,461.037 628.811,457.479" style="fill:none;stroke:black;stroke-width:13.82px;"/>
    <path d="M402.011,433.395C433.272,397.682 467.284,405.366 482.401,438.893" style="fill:none;stroke:black;stroke-width:13.82px;"/>
    <path d="M402.982,449.901C418.204,468.878 430.016,480.727 472.189,458.187" style="fill:none;stroke:black;stroke-width:13.82px;"/>
    <path d="M441.818,428.541C424.767,445.708 449.622,445.921 450.859,439.387C452.653,429.912 443.142,430.428 443.656,436.795C443.677,437.051 445.315,432.938 446.67,437.908" style="fill:none;stroke:black;stroke-width:13.82px;"/>
    <path d="M666.095,477.086C682.027,469.359 692.918,471.685 685.235,487.609C676.219,506.297 651.462,506.804 649.555,507.057" style="fill:none;stroke:black;stroke-width:13.82px;"/>
    <path d="M371.913,245.041C427.193,246.896 424.388,219.4 510.297,226.071C571.297,230.809 575.838,222.357 643.363,238.363C661.348,242.627 661.713,240.823 676.991,251.405C696.099,264.639 719.672,253.123 745.101,274.493C769.56,295.047 773.402,291.596 787.992,320.519C789.455,323.419 791.66,321.258 812.55,352.859C818.341,361.62 831.698,370.098 834.631,380.702C837.645,391.596 895.701,491.653 754.527,547.093C691.149,571.981 663.172,573.645 654.93,574.136C648.126,574.54 621.21,577.016 595.737,590.887" style="fill:none;stroke:black;stroke-width:13.82px;"/>
    <path d="M369.971,246.983C352.845,257.96 353.86,259.295 334.465,263.687C333.483,263.909 330.586,264.565 323.884,270.489C305.102,287.088 197.393,348.558 196.585,411.569C195.162,522.45 230.844,508.344 285.958,548.166C290.283,551.29 290.675,548.894 349.457,568.556C403.828,586.742 409.477,574.115 443.485,594.489" style="fill:none;stroke:black;stroke-width:13.82px;"/>
    <path d="M321.426,267.371C303.53,177.718 387.666,70.95 539.393,75.146C720.879,80.164 710.383,253.146 710.732,258.148" style="fill:none;stroke:black;stroke-width:13.82px;"/>
    <path d="M364.146,246.983C385.666,209.949 549.992,116.479 658.825,237.517" style="fill:none;stroke:black;stroke-width:13.82px;"/>
    <path d="M413.662,121.737L409.222,135.069" style="fill:none;stroke:black;stroke-width:13.82px;"/>
    <path d="M430.167,119.795L428.813,129.058" style="fill:none;stroke:black;stroke-width:13.82px;"/>
    <path d="M459.294,116.882L457.954,123.235" style="fill:none;stroke:black;stroke-width:13.82px;"/>
    <path d="M450.556,144.067L450.556,152.32" style="fill:none;stroke:black;stroke-width:13.82px;"/>
    <path d="M435.992,144.067L435.142,154.263" style="fill:none;stroke:black;stroke-width:13.82px;"/>
    <path d="M424.341,148.922L422.817,157.194" style="fill:none;stroke:black;stroke-width:13.82px;"/>
    <path d="M410.749,148.922L405.617,165.271" style="fill:none;stroke:black;stroke-width:13.82px;"/>
    <path d="M385.506,164.456L378.021,181.085" style="fill:none;stroke:black;stroke-width:13.82px;"/>
    <path d="M368.029,204.263L368.029,221.254" style="fill:none;stroke:black;stroke-width:13.82px;"/>
    <path d="M385.506,193.583L383.124,206.723" style="fill:none;stroke:black;stroke-width:13.82px;"/>
    <path d="M408.807,184.845C407.975,188.897 407.142,192.949 406.31,197.001" style="fill:none;stroke:black;stroke-width:13.82px;"/>
    <path d="M426.283,173.194C425.766,176.275 425.248,179.355 424.73,182.435" style="fill:none;stroke:black;stroke-width:13.82px;"/>
    <path d="M443.759,169.311L442.564,173.744" style="fill:none;stroke:black;stroke-width:13.82px;"/>
    <path d="M459.294,165.427L459.834,171.759" style="fill:none;stroke:black;stroke-width:13.82px;"/>
    <path d="M353.466,227.565L353.655,237.829" style="fill:none;stroke:black;stroke-width:13.82px;"/>
    <path d="M568.035,163.485L568.227,165.011" style="fill:none;stroke:black;stroke-width:13.82px;"/>
    <path d="M587.453,170.282L587.782,172.756" style="fill:none;stroke:black;stroke-width:13.82px;"/>
    <path d="M599.103,170.282L600.795,175.796" style="fill:none;stroke:black;stroke-width:13.82px;"/>
    <path d="M602.016,146.009L604.166,152.678" style="fill:none;stroke:black;stroke-width:13.82px;"/>
    <path d="M622.405,123.678L624.164,134.999" style="fill:none;stroke:black;stroke-width:13.82px;"/>
    <path d="M619.492,155.718C620.672,159.507 621.852,163.297 623.031,167.086" style="fill:none;stroke:black;stroke-width:13.82px;"/>
    <path d="M627.259,186.787C627.552,189.905 627.845,193.023 628.138,196.142" style="fill:none;stroke:black;stroke-width:13.82px;"/>
    <path d="M636.968,156.689L638.616,171.748" style="fill:none;stroke:black;stroke-width:13.82px;"/>
    <path d="M633.085,135.329L634.425,141.682" style="fill:none;stroke:black;stroke-width:13.82px;"/>
    <path d="M651.532,143.096C652.078,147.205 652.624,151.314 653.17,155.423" style="fill:none;stroke:black;stroke-width:13.82px;"/>
    <path d="M659.299,175.136L663.032,191.302" style="fill:none;stroke:black;stroke-width:13.82px;"/>
    <path d="M668.037,154.747L670.168,164.041" style="fill:none;stroke:black;stroke-width:13.82px;"/>
    <path d="M676.775,185.816L680.483,205.873" style="fill:none;stroke:black;stroke-width:13.82px;"/>
    <path d="M680.659,220.768C681.076,228.068 681.493,235.368 681.909,242.669" style="fill:none;stroke:black;stroke-width:13.82px;"/>
    <path d="M659.299,202.321C659.68,206.691 660.061,211.062 660.441,215.432" style="fill:none;stroke:black;stroke-width:13.82px;"/>
    <path d="M636.968,191.641L638.485,202.065" style="fill:none;stroke:black;stroke-width:13.82px;"/>
    <path d="M642.794,256.692L663.08,266.553" style="fill:none;stroke:black;stroke-width:13.82px;"/>
    <path d="M638.91,271.255C641.405,273.498 643.901,275.741 646.396,277.983" style="fill:none;stroke:black;stroke-width:13.82px;"/>
    <path d="M661.241,295.528C664.033,298.124 666.825,300.72 669.616,303.316" style="fill:none;stroke:black;stroke-width:13.82px;"/>
    <path d="M670.95,283.877C676.344,287.752 681.738,291.628 687.133,295.504" style="fill:none;stroke:black;stroke-width:13.82px;"/>
    <path d="M687.455,281.935C688.053,282.39 688.027,282.394 708.512,300.338" style="fill:none;stroke:black;stroke-width:13.82px;"/>
    <path d="M701.048,274.168C717.942,287.458 716.104,288.569 722.465,295.133" style="fill:none;stroke:black;stroke-width:13.82px;"/>
    <path d="M731.146,314.946L735.146,320.327" style="fill:none;stroke:black;stroke-width:13.82px;"/>
    <path d="M740.855,308.149C743.866,312.808 746.878,317.467 749.89,322.126" style="fill:none;stroke:black;stroke-width:13.82px;"/>
    <path d="M346.67,286.789C354.821,279.409 354.646,279.965 364.979,274.906" style="fill:none;stroke:black;stroke-width:13.82px;"/>
    <path d="M358.32,290.673C366.775,285.221 366.615,285.65 375.574,281.487" style="fill:none;stroke:black;stroke-width:13.82px;"/>
    <path d="M274.823,332.422C294.602,314.434 294.813,315.121 317.935,301.067" style="fill:none;stroke:black;stroke-width:13.82px;"/>
    <path d="M290.357,336.305C304.226,324.516 303.701,324.599 319.323,314.655" style="fill:none;stroke:black;stroke-width:13.82px;"/>
    <path d="M320.455,329.509C324.449,326.473 328.443,323.438 332.438,320.402" style="fill:none;stroke:black;stroke-width:13.82px;"/>
    <path d="M345.699,324.654L353.109,318.815" style="fill:none;stroke:black;stroke-width:13.82px;"/>
    <path d="M224.336,424.657C221.801,429.715 221.542,429.327 221.847,435.124" style="fill:none;stroke:black;stroke-width:13.82px;"/>
    <path d="M243.754,422.715C243.489,425.814 243.224,428.913 242.959,432.012" style="fill:none;stroke:black;stroke-width:13.82px;"/>
    <path d="M220.453,461.551C221.111,474.345 222.46,473.633 229.98,482.739" style="fill:none;stroke:black;stroke-width:13.82px;"/>
    <path d="M235.016,461.551C237.882,466.335 240.748,471.118 243.614,475.902" style="fill:none;stroke:black;stroke-width:13.82px;"/>
    <path d="M256.376,459.61C258.703,462.395 261.03,465.18 263.357,467.965" style="fill:none;stroke:black;stroke-width:13.82px;"/>
    <path d="M276.765,456.697L277.287,458.39" style="fill:none;stroke:black;stroke-width:13.82px;"/>
    <path d="M242.783,507.184C256.879,523.319 258.088,521.554 276.915,532.099" style="fill:none;stroke:black;stroke-width:13.82px;"/>
    <path d="M256.376,498.445C267.748,511.316 266.068,513.684 289.082,523.414" style="fill:none;stroke:black;stroke-width:13.82px;"/>
    <path d="M282.59,496.504C286.359,500.507 285.935,500.398 290.253,503.456" style="fill:none;stroke:black;stroke-width:13.82px;"/>
    <path d="M298.125,490.678L299.748,493.735" style="fill:none;stroke:black;stroke-width:13.82px;"/>
    <path d="M293.27,530.485C300.972,536.039 300.888,535.606 309.464,538.974" style="fill:none;stroke:black;stroke-width:13.82px;"/>
    <path d="M307.834,519.805C316.197,526.917 315.595,527.51 325.837,530.852" style="fill:none;stroke:black;stroke-width:13.82px;"/>
    <path d="M358.32,555.729C368.176,560.129 367.758,559.907 378.296,563.673" style="fill:none;stroke:black;stroke-width:13.82px;"/>
    <path d="M365.117,541.165C371.707,545.791 371.447,545.348 379.227,547.434" style="fill:none;stroke:black;stroke-width:13.82px;"/>
    <path d="M375.796,532.427C379.71,536.692 379.833,536.027 384.481,539.271" style="fill:none;stroke:black;stroke-width:13.82px;"/>
    <path d="M391.331,562.525C395.799,564.91 400.267,567.295 404.735,569.681" style="fill:none;stroke:black;stroke-width:13.82px;"/>
    <path d="M396.185,552.816C399.661,554.611 403.137,556.407 406.613,558.203" style="fill:none;stroke:black;stroke-width:13.82px;"/>
    <path d="M328.222,516.893C329.871,518.434 331.52,519.976 333.169,521.518" style="fill:none;stroke:black;stroke-width:13.82px;"/>
    <path d="M703.96,509.125L708.034,505.634" style="fill:none;stroke:black;stroke-width:13.82px;"/>
    <path d="M707.844,515.922L715.369,512.504" style="fill:none;stroke:black;stroke-width:13.82px;"/>
    <path d="M714.64,529.514C723.93,522.831 723.498,522.9 733.199,517.155" style="fill:none;stroke:black;stroke-width:13.82px;"/>
    <path d="M720.466,539.223L740.049,527.924" style="fill:none;stroke:black;stroke-width:13.82px;"/>
    <path d="M734.058,546.02C736.197,544.856 736.019,544.669 760.445,530.849" style="fill:none;stroke:black;stroke-width:13.82px;"/>
    <path d="M755.418,504.271C761.252,500.424 767.086,496.577 772.92,492.73" style="fill:none;stroke:black;stroke-width:13.82px;"/>
    <path d="M769.011,509.125C775.369,504.594 781.726,500.063 788.084,495.532" style="fill:none;stroke:black;stroke-width:13.82px;"/>
    <path d="M784.545,514.951C792.503,508.134 800.461,501.316 808.419,494.499" style="fill:none;stroke:black;stroke-width:13.82px;"/>
    <path d="M673.863,525.631C677.826,523.844 681.788,522.058 685.751,520.271" style="fill:none;stroke:black;stroke-width:13.82px;"/>
    <path d="M678.717,540.194C686.432,534.873 685.894,534.888 693.978,530.86" style="fill:none;stroke:black;stroke-width:13.82px;"/>
    <path d="M684.542,551.845C692.784,550.94 692.184,550.529 699.499,546.705" style="fill:none;stroke:black;stroke-width:13.82px;"/>
    <path d="M687.455,561.554C695.56,557.503 694.871,557.338 709.884,547.23" style="fill:none;stroke:black;stroke-width:13.82px;"/>
    <path d="M651.532,546.02C660.165,544.482 659.357,543.765 664.94,541.789" style="fill:none;stroke:black;stroke-width:13.82px;"/>
    <path d="M651.532,562.525C655.731,561.235 659.931,559.945 664.13,558.655" style="fill:none;stroke:black;stroke-width:13.82px;"/>
</svg>
